<svg width="389" height="511" xmlns="http://www.w3.org/2000/svg" xmlns:xlink="http://www.w3.org/1999/xlink" overflow="hidden"><defs><clipPath id="clip0"><rect x="212" y="103" width="389" height="511"/></clipPath><clipPath id="clip1"><rect x="220" y="109" width="368" height="505"/></clipPath><clipPath id="clip2"><rect x="220" y="109" width="368" height="505"/></clipPath><clipPath id="clip3"><rect x="220" y="109" width="368" height="505"/></clipPath></defs><g clip-path="url(#clip0)" transform="translate(-212 -103)"><g clip-path="url(#clip1)"><g clip-path="url(#clip2)"><g clip-path="url(#clip3)"><path d="M340.402 0C355.568-5.73856e-15 367.862 12.294 367.862 27.4594L367.862 477.412C367.862 492.578 355.568 504.872 340.402 504.872L27.4594 504.872C12.294 504.872 6.16173e-06 492.578 6.16173e-06 477.412L6.16173e-06 27.4594C6.16173e-06 12.294 12.294-9.24259e-06 27.4594-9.24259e-06Z" fill="#FFFFFF" transform="matrix(1.00038 0 0 1 220 109.067)"/></g></g></g><rect x="261" y="143" width="79" height="96" fill="#DE0C7D"/><rect x="340" y="143" width="59" height="96" fill="#1D9ED4"/><rect x="399" y="143" width="74" height="96" fill="#72B03D"/><rect x="473" y="143" width="74" height="96" fill="#F5D801"/><rect x="284" y="321" width="231" height="228" fill="#72B03D"/><text fill="#FFFFFF" font-family="Assistant,Assistant_MSFontService,sans-serif" font-weight="700" font-size="48" transform="translate(344.15 451)">BABY<tspan font-family="Arial,Arial_MSFontService,sans-serif" font-size="96" x="-73.5812" y="-226">L</tspan><tspan font-family="Arial,Arial_MSFontService,sans-serif" font-size="96" x="12.629" y="-225">I</tspan><tspan font-family="Arial,Arial_MSFontService,sans-serif" font-size="96" x="62.7727" y="-226">F</tspan><tspan font-family="Arial,Arial_MSFontService,sans-serif" font-size="96" x="134.119" y="-226">E</tspan></text></g></svg>