<svg width="371" height="506" xmlns="http://www.w3.org/2000/svg" xmlns:xlink="http://www.w3.org/1999/xlink" overflow="hidden"><defs><clipPath id="clip0"><rect x="599" y="108" width="371" height="506"/></clipPath><clipPath id="clip1"><rect x="602" y="109" width="368" height="505"/></clipPath><clipPath id="clip2"><rect x="602" y="109" width="368" height="505"/></clipPath><clipPath id="clip3"><rect x="602" y="109" width="368" height="505"/></clipPath></defs><g clip-path="url(#clip0)" transform="translate(-599 -108)"><g clip-path="url(#clip1)"><g clip-path="url(#clip2)"><g clip-path="url(#clip3)"><path d="M340.402 0C355.568-5.73856e-15 367.862 12.294 367.862 27.4594L367.862 477.412C367.862 492.578 355.568 504.872 340.402 504.872L27.4594 504.872C12.294 504.872 6.16173e-06 492.578 6.16173e-06 477.412L6.16173e-06 27.4594C6.16173e-06 12.294 12.294-9.24259e-06 27.4594-9.24259e-06Z" fill="#FFFFFF" transform="matrix(1.00038 0 0 1 602 109.067)"/></g></g></g><text font-family="Oswald,Oswald_MSFontService,sans-serif" font-weight="400" font-size="43" transform="translate(624.967 169)">Baby before or <tspan font-size="43" x="0" y="51">after marriage?</tspan><tspan font-family="Assistant,Assistant_MSFontService,sans-serif" font-size="23" x="0" y="90">Data from the National </tspan><tspan font-family="Assistant,Assistant_MSFontService,sans-serif" font-size="23" x="0" y="117">Longitudinal Survey of Youth </tspan><tspan font-family="Assistant,Assistant_MSFontService,sans-serif" font-size="23" x="0" y="145">reveals that economic status </tspan><tspan font-family="Assistant,Assistant_MSFontService,sans-serif" font-size="23" x="0" y="172">differs greatly between </tspan><tspan font-family="Assistant,Assistant_MSFontService,sans-serif" font-size="23" x="0" y="199">individuals that married before </tspan><tspan font-family="Assistant,Assistant_MSFontService,sans-serif" font-size="23" x="0" y="226">having a baby and those who </tspan><tspan font-family="Assistant,Assistant_MSFontService,sans-serif" font-size="23" x="0" y="253">did not</tspan><tspan font-family="Assistant,Assistant_MSFontService,sans-serif" font-size="23" x="67" y="253">.</tspan><tspan font-family="Assistant,Assistant_MSFontService,sans-serif" font-size="23" x="0" y="308">Nearly half of Millennials who </tspan><tspan font-family="Assistant,Assistant_MSFontService,sans-serif" font-size="23" x="0" y="335">had a baby outside of marriage </tspan><tspan font-family="Assistant,Assistant_MSFontService,sans-serif" font-size="23" x="0" y="362">are in the bottom third of the </tspan><tspan font-family="Assistant,Assistant_MSFontService,sans-serif" font-size="23" x="0" y="389">income distribution.</tspan></text></g></svg>