<svg width="371" height="520" xmlns="http://www.w3.org/2000/svg" xmlns:xlink="http://www.w3.org/1999/xlink" overflow="hidden"><defs><clipPath id="clip0"><rect x="599" y="108" width="371" height="520"/></clipPath><clipPath id="clip1"><rect x="602" y="109" width="368" height="505"/></clipPath><clipPath id="clip2"><rect x="602" y="109" width="368" height="505"/></clipPath><clipPath id="clip3"><rect x="602" y="109" width="368" height="505"/></clipPath></defs><g clip-path="url(#clip0)" transform="translate(-599 -108)"><g clip-path="url(#clip1)"><g clip-path="url(#clip2)"><g clip-path="url(#clip3)"><path d="M340.402 0C355.568-5.73856e-15 367.862 12.294 367.862 27.4594L367.862 477.412C367.862 492.578 355.568 504.872 340.402 504.872L27.4594 504.872C12.294 504.872 6.16173e-06 492.578 6.16173e-06 477.412L6.16173e-06 27.4594C6.16173e-06 12.294 12.294-9.24259e-06 27.4594-9.24259e-06Z" fill="#FFFFFF" transform="matrix(1.00038 0 0 1 602 109.067)"/></g></g></g><text font-family="Oswald,Oswald_MSFontService,sans-serif" font-weight="400" font-size="43" transform="translate(624.967 169)">Start college or <tspan font-size="43" x="0" y="51">start a career?</tspan><tspan font-family="Assistant,Assistant_MSFontService,sans-serif" font-size="24" x="0" y="97">In 2014, the poverty rate was </tspan><tspan font-family="Assistant,Assistant_MSFontService,sans-serif" font-size="24" x="0" y="126">almost 3x lower for individuals </tspan><tspan font-family="Assistant,Assistant_MSFontService,sans-serif" font-size="24" x="0" y="155">with a bachelor’s degree or </tspan><tspan font-family="Assistant,Assistant_MSFontService,sans-serif" font-size="24" x="0" y="184">higher compared to those with </tspan><tspan font-family="Assistant,Assistant_MSFontService,sans-serif" font-size="24" x="0" y="213">only a high school diploma. </tspan><tspan font-family="Assistant,Assistant_MSFontService,sans-serif" font-size="24" x="0" y="270">Furthermore, folks who do not </tspan><tspan font-family="Assistant,Assistant_MSFontService,sans-serif" font-size="24" x="0" y="299">finish high school have a </tspan><tspan font-family="Assistant,Assistant_MSFontService,sans-serif" font-size="24" x="0" y="328">poverty rate of 29%, more </tspan><tspan font-family="Assistant,Assistant_MSFontService,sans-serif" font-size="24" x="0" y="357">than twice that of their peers </tspan><tspan font-family="Assistant,Assistant_MSFontService,sans-serif" font-size="24" x="0" y="385">who do receive a high school </tspan><tspan font-family="Assistant,Assistant_MSFontService,sans-serif" font-size="24" x="0" y="414">diploma.</tspan></text></g></svg>