<svg width="838" height="604" xmlns="http://www.w3.org/2000/svg" xmlns:xlink="http://www.w3.org/1999/xlink" overflow="hidden"><defs><clipPath id="clip0"><rect x="216" y="76" width="838" height="604"/></clipPath></defs><g clip-path="url(#clip0)" transform="translate(-216 -76)"><text fill="#FFFFFF" font-family="Assistant,Assistant_MSFontService,sans-serif" font-weight="700" font-size="16" transform="translate(226.4 96)">60</text><path d="M253.5 91.5001 1052.7 91.5002" stroke="#FFFFFF" stroke-width="1.33333" stroke-miterlimit="8" fill="none" fill-rule="evenodd"/><path d="M253.5 171.5 1052.7 171.5" stroke="#FFFFFF" stroke-width="1.33333" stroke-miterlimit="8" fill="none" fill-rule="evenodd"/><path d="M253.5 251.5 1052.7 251.5" stroke="#FFFFFF" stroke-width="1.33333" stroke-miterlimit="8" fill="none" fill-rule="evenodd"/><path d="M253.5 332.5 1052.7 332.5" stroke="#FFFFFF" stroke-width="1.33333" stroke-miterlimit="8" fill="none" fill-rule="evenodd"/><path d="M253.5 411.5 1052.7 411.5" stroke="#FFFFFF" stroke-width="1.33333" stroke-miterlimit="8" fill="none" fill-rule="evenodd"/><path d="M253.5 490.5 1052.7 490.5" stroke="#FFFFFF" stroke-width="1.33333" stroke-miterlimit="8" fill="none" fill-rule="evenodd"/><path d="M253.5 571.5 1052.7 571.5" stroke="#FFFFFF" stroke-width="1.33333" stroke-miterlimit="8" fill="none" fill-rule="evenodd"/><text fill="#FFFFFF" font-family="Assistant,Assistant_MSFontService,sans-serif" font-weight="700" font-size="16" transform="translate(226.4 176)">50<tspan font-size="16" x="0" y="80">4</tspan><tspan font-size="16" x="8.33334" y="80">0</tspan><tspan font-size="16" x="0" y="161">3</tspan><tspan font-size="16" x="8.33334" y="161">0</tspan><tspan font-size="16" x="0" y="240">2</tspan><tspan font-size="16" x="8.33334" y="240">0</tspan><tspan font-size="16" x="0" y="319">1</tspan><tspan font-size="16" x="7.66667" y="319">0</tspan><tspan font-size="16" x="6.33334" y="400">0</tspan><tspan font-size="21" x="201.999" y="438">Married</tspan><tspan font-size="21" x="534.183" y="438">Cohabiting</tspan></text><rect x="358" y="430" width="55" height="141" fill="#99CCFF"/><path d="M314 270 458 270 449.163 430 322.435 430 314 270Z" fill="#99CCFF" fill-rule="evenodd"/><path d="M335 229.5C335 201.057 357.61 178 385.5 178 413.39 178 436 201.057 436 229.5 436 257.943 413.39 281 385.5 281 357.61 281 335 257.943 335 229.5Z" fill="#99CCFF" fill-rule="evenodd"/><rect x="509" y="389" width="55" height="182" fill="#FF99FF"/><path d="M465 231 608 231 599.225 391 473.377 391 465 231Z" fill="#FF99FF" fill-rule="evenodd"/><path d="M486 190.5C486 162.057 508.61 139 536.5 139 564.39 139 587 162.057 587 190.5 587 218.943 564.39 242 536.5 242 508.61 242 486 218.943 486 190.5Z" fill="#FF99FF" fill-rule="evenodd"/><rect x="713" y="537" width="55" height="34" fill="#99CCFF"/><path d="M669 383 812 383 803.225 543 677.377 543 669 383Z" fill="#99CCFF" fill-rule="evenodd"/><path d="M690 342.5C690 314.057 712.61 291 740.5 291 768.39 291 791 314.057 791 342.5 791 370.943 768.39 394 740.5 394 712.61 394 690 370.943 690 342.5Z" fill="#99CCFF" fill-rule="evenodd"/><rect x="863" y="502" width="56" height="69" fill="#FF99FF"/><path d="M819 343 963 343 954.163 502 827.435 502 819 343Z" fill="#FF99FF" fill-rule="evenodd"/><path d="M841 303.5C841 275.057 863.386 252 891 252 918.614 252 941 275.057 941 303.5 941 331.943 918.614 355 891 355 863.386 355 841 331.943 841 303.5Z" fill="#FF99FF" fill-rule="evenodd"/><text fill="#FFFFFF" font-family="Assistant,Assistant_MSFontService,sans-serif" font-style="oblique" font-weight="400" font-size="14" transform="translate(804.533 667)">Adapted from Institute for Family<tspan font-size="14" x="194.833" y="0">Studie</tspan><tspan font-size="14" x="232.333" y="0">s</tspan></text><rect x="551" y="635" width="14" height="14" fill="#99CCFF"/><text fill="#FFFFFF" font-family="Assistant,Assistant_MSFontService,sans-serif" font-weight="400" font-size="15" transform="translate(573.25 647)">Men</text><rect x="638" y="635" width="14" height="14" fill="#FF99FF"/><text fill="#FFFFFF" font-family="Assistant,Assistant_MSFontService,sans-serif" font-weight="400" font-size="15" transform="translate(661.698 647)">Women</text></g></svg>