<svg width="371" height="506" xmlns="http://www.w3.org/2000/svg" xmlns:xlink="http://www.w3.org/1999/xlink" overflow="hidden"><defs><clipPath id="clip0"><rect x="599" y="108" width="371" height="506"/></clipPath><clipPath id="clip1"><rect x="602" y="109" width="368" height="505"/></clipPath><clipPath id="clip2"><rect x="602" y="109" width="368" height="505"/></clipPath><clipPath id="clip3"><rect x="602" y="109" width="368" height="505"/></clipPath></defs><g clip-path="url(#clip0)" transform="translate(-599 -108)"><g clip-path="url(#clip1)"><g clip-path="url(#clip2)"><g clip-path="url(#clip3)"><path d="M340.402 0C355.568-5.73856e-15 367.862 12.294 367.862 27.4594L367.862 477.412C367.862 492.578 355.568 504.872 340.402 504.872L27.4594 504.872C12.294 504.872 6.16173e-06 492.578 6.16173e-06 477.412L6.16173e-06 27.4594C6.16173e-06 12.294 12.294-9.24259e-06 27.4594-9.24259e-06Z" fill="#FFFFFF" transform="matrix(1.00038 0 0 1 602 109.067)"/></g></g></g><text font-family="Oswald,Oswald_MSFontService,sans-serif" font-weight="400" font-size="43" transform="translate(624.967 169)">Move in or <tspan font-size="43" x="0" y="51">get married?</tspan><tspan font-family="Assistant,Assistant_MSFontService,sans-serif" font-size="23" x="0" y="90">Based on a 2018 survey of </tspan><tspan font-family="Assistant,Assistant_MSFontService,sans-serif" font-size="23" x="0" y="117">American adults, marrie</tspan><tspan font-family="Assistant,Assistant_MSFontService,sans-serif" font-size="23" x="224.333" y="117">d</tspan><tspan font-family="Assistant,Assistant_MSFontService,sans-serif" font-size="23" x="0" y="145">couples</tspan><tspan font-family="Assistant,Assistant_MSFontService,sans-serif" font-size="23" x="78" y="145">were</tspan><tspan font-family="Assistant,Assistant_MSFontService,sans-serif" font-size="23" x="128.667" y="145">more</tspan><tspan font-family="Assistant,Assistant_MSFontService,sans-serif" font-size="23" x="182.833" y="145">likely to </tspan><tspan font-family="Assistant,Assistant_MSFontService,sans-serif" font-size="23" x="0" y="172">report higher relationship </tspan><tspan font-family="Assistant,Assistant_MSFontService,sans-serif" font-size="23" x="0" y="199">satisfaction, commitment, and </tspan><tspan font-family="Assistant,Assistant_MSFontService,sans-serif" font-size="23" x="0" y="226">stability than those who were </tspan><tspan font-family="Assistant,Assistant_MSFontService,sans-serif" font-size="23" x="0" y="253">cohabiting.</tspan><tspan font-family="Assistant,Assistant_MSFontService,sans-serif" font-size="23" x="0" y="308">People</tspan><tspan font-family="Assistant,Assistant_MSFontService,sans-serif" font-size="23" x="69.8334" y="308">choose</tspan><tspan font-family="Assistant,Assistant_MSFontService,sans-serif" font-size="23" x="141.833" y="308">to</tspan><tspan font-family="Assistant,Assistant_MSFontService,sans-serif" font-size="23" x="166" y="308">live</tspan><tspan font-family="Assistant,Assistant_MSFontService,sans-serif" font-size="23" x="203.167" y="308">together</tspan><tspan font-family="Assistant,Assistant_MSFontService,sans-serif" font-size="23" x="0" y="335">before</tspan><tspan font-family="Assistant,Assistant_MSFontService,sans-serif" font-size="23" x="65.6667" y="335">marriage</tspan><tspan font-family="Assistant,Assistant_MSFontService,sans-serif" font-size="23" x="154.833" y="335">for</tspan><tspan font-family="Assistant,Assistant_MSFontService,sans-serif" font-size="23" x="185.667" y="335">a</tspan><tspan font-family="Assistant,Assistant_MSFontService,sans-serif" font-size="23" x="201.5" y="335">variety</tspan><tspan font-family="Assistant,Assistant_MSFontService,sans-serif" font-size="23" x="269.833" y="335">of</tspan><tspan font-family="Assistant,Assistant_MSFontService,sans-serif" font-size="23" x="0" y="362">reasons</tspan><tspan font-family="Assistant,Assistant_MSFontService,sans-serif" font-size="23" x="78.1667" y="362">including</tspan><tspan font-family="Assistant,Assistant_MSFontService,sans-serif" font-size="23" x="170.333" y="362">convenience,</tspan><tspan font-family="Assistant,Assistant_MSFontService,sans-serif" font-size="23" x="0" y="389">financial</tspan><tspan font-family="Assistant,Assistant_MSFontService,sans-serif" font-size="23" x="85.3334" y="389">need,</tspan><tspan font-family="Assistant,Assistant_MSFontService,sans-serif" font-size="23" x="142.5" y="389">and</tspan><tspan font-family="Assistant,Assistant_MSFontService,sans-serif" font-size="23" x="183.167" y="389">testing</tspan><tspan font-family="Assistant,Assistant_MSFontService,sans-serif" font-size="23" x="0" y="417">compatibility</tspan><tspan font-family="Assistant,Assistant_MSFontService,sans-serif" font-size="23" x="125" y="417">.</tspan></text></g></svg>