<svg width="945" height="345" xmlns="http://www.w3.org/2000/svg" xmlns:xlink="http://www.w3.org/1999/xlink" overflow="hidden"><defs><filter id="fx0" x="-10%" y="-10%" width="120%" height="120%" filterUnits="userSpaceOnUse" primitiveUnits="userSpaceOnUse"><feComponentTransfer color-interpolation-filters="sRGB"><feFuncR type="discrete" tableValues="0 0"/><feFuncG type="discrete" tableValues="0 0"/><feFuncB type="discrete" tableValues="0 0"/><feFuncA type="linear" slope="0.4" intercept="0"/></feComponentTransfer><feGaussianBlur stdDeviation="2.22222 2.22222"/></filter><filter id="fx1" x="-10%" y="-10%" width="120%" height="120%" filterUnits="userSpaceOnUse" primitiveUnits="userSpaceOnUse"><feComponentTransfer color-interpolation-filters="sRGB"><feFuncR type="discrete" tableValues="0 0"/><feFuncG type="discrete" tableValues="0 0"/><feFuncB type="discrete" tableValues="0 0"/><feFuncA type="linear" slope="0.4" intercept="0"/></feComponentTransfer><feGaussianBlur stdDeviation="2.22222 2.22222"/></filter><filter id="fx2" x="-10%" y="-10%" width="120%" height="120%" filterUnits="userSpaceOnUse" primitiveUnits="userSpaceOnUse"><feComponentTransfer color-interpolation-filters="sRGB"><feFuncR type="discrete" tableValues="0 0"/><feFuncG type="discrete" tableValues="0 0"/><feFuncB type="discrete" tableValues="0 0"/><feFuncA type="linear" slope="0.4" intercept="0"/></feComponentTransfer><feGaussianBlur stdDeviation="2.22222 2.22222"/></filter><clipPath id="clip3"><rect x="73" y="84" width="945" height="345"/></clipPath><clipPath id="clip4"><rect x="-2" y="-4" width="111" height="60"/></clipPath><clipPath id="clip5"><rect x="0" y="0" width="106" height="52"/></clipPath><clipPath id="clip6"><rect x="-2" y="-4" width="111" height="60"/></clipPath><clipPath id="clip7"><rect x="0" y="0" width="106" height="52"/></clipPath><clipPath id="clip8"><rect x="-2" y="-4" width="111" height="60"/></clipPath><clipPath id="clip9"><rect x="0" y="0" width="106" height="52"/></clipPath></defs><g clip-path="url(#clip3)" transform="translate(-73 -84)"><rect x="262.5" y="292.5" width="189" height="136" stroke="#FFFFFF" stroke-width="1.33333" stroke-miterlimit="8" fill="#FFC000"/><rect x="639.5" y="292.5" width="189" height="136" stroke="#FFFFFF" stroke-width="1.33333" stroke-miterlimit="8" fill="#FFC000"/><rect x="828.5" y="292.5" width="189" height="136" stroke="#FFFFFF" stroke-width="1.33333" stroke-miterlimit="8" fill="#FFC000"/><rect x="451.5" y="292.5" width="188" height="136" stroke="#FFFFFF" stroke-width="1.33333" stroke-miterlimit="8" fill="#00B050"/><rect x="74.5001" y="292.5" width="188" height="136" stroke="#FFFFFF" stroke-width="1.33333" stroke-miterlimit="8" fill="#FFC000"/><text fill="#FFFFFF" font-family="Oswald,Oswald_MSFontService,sans-serif" font-weight="400" font-size="43" transform="translate(477.333 375)">PAY DAY<tspan font-size="16" x="41.1666" y="-191">AVERAGE </tspan><tspan font-size="32" x="17.4169" y="-153">$62,056</tspan></text><path d="M0 0 0.000104987 57.3014" stroke="#FFFFFF" stroke-width="3" stroke-miterlimit="8" stroke-dasharray="12 9" fill="none" fill-rule="evenodd" transform="matrix(1 0 0 -1 545.5 292.801)"/><path d="M659 348C659 354.627 653.627 360 647 360 640.373 360 635 354.627 635 348 635 341.373 640.373 336 647 336 653.627 336 659 341.373 659 348Z" fill="#9A0000" fill-rule="evenodd"/><path d="M707 348C707 354.627 701.627 360 695 360 688.373 360 683 354.627 683 348 683 341.373 688.373 336 695 336 701.627 336 707 341.373 707 348Z" fill="#9A0000" fill-rule="evenodd"/><path d="M691 333 632 333 643.8 318 679.2 318Z" fill="#9A0000" fill-rule="evenodd"/><g clip-path="url(#clip4)" filter="url(#fx0)" transform="translate(618 308)"><g clip-path="url(#clip5)"><path d="M43.82 23.96 43.82 11.72 57.794 11.72C58.916 11.72 59.936 12.128 60.65 12.944L71.666 23.96 43.82 23.96ZM39.74 23.96 13.934 23.96 24.95 12.944C25.766 12.128 26.786 11.72 27.806 11.72L39.74 11.72 39.74 23.96ZM87.68 23.96 79.2141 23.96C78.092 23.96 77.072 23.552 76.358 22.736L63.506 9.98596C61.976 8.45601 59.936 7.64001 57.692 7.64001L27.806 7.64001C25.664 7.64001 23.522 8.45601 21.992 9.98596L9.344 22.736C8.528 23.552 8.12 24.572 8.12 25.6941L8.12 36.2C8.12 40.688 11.792 44.36 16.28 44.36L17.3 44.36C17.3 38.1381 22.298 33.14 28.52 33.14 34.7421 33.14 39.74 38.1381 39.74 44.36L66.26 44.36C66.26 38.1381 71.258 33.14 77.48 33.14 83.702 33.14 88.7 38.1381 88.7 44.36L93.8 44.36C96.044 44.36 97.88 42.524 97.88 40.28L97.88 34.16C97.88 28.5501 93.29 23.96 87.68 23.96Z" fill="#C00000" fill-rule="evenodd"/></g></g><path d="M662 332 662 320 675.7 320C676.8 320 677.8 320.4 678.5 321.2L689.3 332 662 332ZM658 332 632.7 332 643.5 321.2C644.3 320.4 645.3 320 646.3 320L658 320 658 332ZM705 332 696.7 332C695.6 332 694.6 331.6 693.9 330.8L681.3 318.3C679.8 316.8 677.8 316 675.6 316L646.3 316C644.2 316 642.1 316.8 640.6 318.3L628.2 330.8C627.4 331.6 627 332.6 627 333.7L627 344C627 348.4 630.6 352 635 352L636 352C636 345.9 640.9 341 647 341 653.1 341 658 345.9 658 352L684 352C684 345.9 688.9 341 695 341 701.1 341 706 345.9 706 352L711 352C713.2 352 715 350.2 715 348L715 342C715 336.5 710.5 332 705 332Z" fill="#C00000" fill-rule="evenodd"/><path d="M0 0 0.848189 162.398" stroke="#FFFFFF" stroke-width="3" stroke-miterlimit="8" stroke-dasharray="12 9" fill="none" fill-rule="evenodd" transform="matrix(1 0 0 -1 658.5 315.898)"/><text fill="#FFFFFF" font-family="Oswald,Oswald_MSFontService,sans-serif" font-weight="400" font-size="32" transform="translate(607.744 146)">$64,896<tspan font-size="16" x="-7.82922" y="-41">BACHELOR’S</tspan><tspan font-size="16" x="69.8375" y="-41">DEGRE</tspan><tspan font-size="16" x="108.171" y="-41">E</tspan></text><path d="M225 394C225 400.627 219.627 406 213 406 206.373 406 201 400.627 201 394 201 387.373 206.373 382 213 382 219.627 382 225 387.373 225 394Z" fill="#002060" fill-rule="evenodd"/><path d="M273 394C273 400.627 267.627 406 261 406 254.373 406 249 400.627 249 394 249 387.373 254.373 382 261 382 267.627 382 273 387.373 273 394Z" fill="#002060" fill-rule="evenodd"/><path d="M256 379 198 379 209.6 364 244.4 364Z" fill="#002060" fill-rule="evenodd"/><g clip-path="url(#clip6)" filter="url(#fx1)" transform="translate(184 354)"><g clip-path="url(#clip7)"><path d="M43.82 23.96 43.82 11.72 57.794 11.72C58.916 11.72 59.936 12.128 60.65 12.944L71.666 23.96 43.82 23.96ZM39.74 23.96 13.934 23.96 24.95 12.944C25.766 12.128 26.786 11.72 27.806 11.72L39.74 11.72 39.74 23.96ZM87.68 23.96 79.2141 23.96C78.092 23.96 77.072 23.552 76.358 22.736L63.506 9.98596C61.976 8.45601 59.936 7.64001 57.692 7.64001L27.806 7.64001C25.664 7.64001 23.522 8.45601 21.992 9.98596L9.344 22.736C8.528 23.552 8.12 24.572 8.12 25.6941L8.12 36.2C8.12 40.688 11.792 44.36 16.28 44.36L17.3 44.36C17.3 38.1381 22.298 33.14 28.52 33.14 34.7421 33.14 39.74 38.1381 39.74 44.36L66.26 44.36C66.26 38.1381 71.258 33.14 77.48 33.14 83.702 33.14 88.7 38.1381 88.7 44.36L93.8 44.36C96.044 44.36 97.88 42.524 97.88 40.28L97.88 34.16C97.88 28.5501 93.29 23.96 87.68 23.96Z" fill="#003192" fill-rule="evenodd"/></g></g><path d="M228 378 228 366 241.7 366C242.8 366 243.8 366.4 244.5 367.2L255.3 378 228 378ZM224 378 198.7 378 209.5 367.2C210.3 366.4 211.3 366 212.3 366L224 366 224 378ZM271 378 262.7 378C261.6 378 260.6 377.6 259.9 376.8L247.3 364.3C245.8 362.8 243.8 362 241.6 362L212.3 362C210.2 362 208.1 362.8 206.6 364.3L194.2 376.8C193.4 377.6 193 378.6 193 379.7L193 390C193 394.4 196.6 398 201 398L202 398C202 391.9 206.9 387 213 387 219.1 387 224 391.9 224 398L250 398C250 391.9 254.9 387 261 387 267.1 387 272 391.9 272 398L277 398C279.2 398 281 396.2 281 394L281 388C281 382.5 276.5 378 271 378Z" fill="#003192" fill-rule="evenodd"/><path d="M0 0 0.848084 119.928" stroke="#FFFFFF" stroke-width="3" stroke-miterlimit="8" stroke-dasharray="12 9" fill="none" fill-rule="evenodd" transform="matrix(1 0 0 -1 228.5 362.428)"/><text fill="#FFFFFF" font-family="Oswald,Oswald_MSFontService,sans-serif" font-weight="400" font-size="32" transform="translate(179.899 229)">$30,784<tspan font-size="16" x="-31.5834" y="-39">N</tspan><tspan font-size="16" x="-23.0834" y="-39">O</tspan><tspan font-size="16" x="-10.7501" y="-39">HIGH SCHOOL DIPLOMA</tspan></text><path d="M325 372C325 378.627 319.627 384 313 384 306.373 384 301 378.627 301 372 301 365.373 306.373 360 313 360 319.627 360 325 365.373 325 372Z" fill="#006000" fill-rule="evenodd"/><path d="M373 372C373 378.627 367.627 384 361 384 354.373 384 349 378.627 349 372 349 365.373 354.373 360 361 360 367.627 360 373 365.373 373 372Z" fill="#006000" fill-rule="evenodd"/><path d="M356 357 298 357 309.6 342 344.4 342Z" fill="#006000" fill-rule="evenodd"/><g clip-path="url(#clip8)" filter="url(#fx2)" transform="translate(284 332)"><g clip-path="url(#clip9)"><path d="M43.82 23.96 43.82 11.72 57.794 11.72C58.916 11.72 59.936 12.128 60.65 12.944L71.666 23.96 43.82 23.96ZM39.74 23.96 13.934 23.96 24.95 12.944C25.766 12.128 26.786 11.72 27.806 11.72L39.74 11.72 39.74 23.96ZM87.68 23.96 79.2141 23.96C78.092 23.96 77.072 23.552 76.358 22.736L63.506 9.98596C61.976 8.45601 59.936 7.64001 57.692 7.64001L27.806 7.64001C25.664 7.64001 23.522 8.45601 21.992 9.98596L9.344 22.736C8.528 23.552 8.12 24.572 8.12 25.6941L8.12 36.2C8.12 40.688 11.792 44.36 16.28 44.36L17.3 44.36C17.3 38.1381 22.298 33.14 28.52 33.14 34.7421 33.14 39.74 38.1381 39.74 44.36L66.26 44.36C66.26 38.1381 71.258 33.14 77.48 33.14 83.702 33.14 88.7 38.1381 88.7 44.36L93.8 44.36C96.044 44.36 97.88 42.524 97.88 40.28L97.88 34.16C97.88 28.5501 93.29 23.96 87.68 23.96Z" fill="#007E00" fill-rule="evenodd"/></g></g><path d="M328 356 328 344 341.7 344C342.8 344 343.8 344.4 344.5 345.2L355.3 356 328 356ZM324 356 298.7 356 309.5 345.2C310.3 344.4 311.3 344 312.3 344L324 344 324 356ZM371 356 362.7 356C361.6 356 360.6 355.6 359.9 354.8L347.3 342.3C345.8 340.8 343.8 340 341.6 340L312.3 340C310.2 340 308.1 340.8 306.6 342.3L294.2 354.8C293.4 355.6 293 356.6 293 357.7L293 368C293 372.4 296.6 376 301 376L302 376C302 369.9 306.9 365 313 365 319.1 365 324 369.9 324 376L350 376C350 369.9 354.9 365 361 365 367.1 365 372 369.9 372 376L377 376C379.2 376 381 374.2 381 372L381 366C381 360.5 376.5 356 371 356Z" fill="#007E00" fill-rule="evenodd"/><path d="M327.205 339.662 326.5 152.5" stroke="#FFFFFF" stroke-width="3" stroke-miterlimit="8" stroke-dasharray="12 9" fill="none" fill-rule="evenodd"/><text fill="#FFFFFF" font-family="Oswald,Oswald_MSFontService,sans-serif" font-weight="400" font-size="32" transform="translate(276.749 146)">$38,792<tspan font-size="16" x="-21.5001" y="-39">HIGH SCHOOL DIPLOMA</tspan></text></g></svg>