<svg width="945" height="346" xmlns="http://www.w3.org/2000/svg" xmlns:xlink="http://www.w3.org/1999/xlink" overflow="hidden"><defs><filter id="fx0" x="-10%" y="-10%" width="120%" height="120%" filterUnits="userSpaceOnUse" primitiveUnits="userSpaceOnUse"><feComponentTransfer color-interpolation-filters="sRGB"><feFuncR type="discrete" tableValues="0 0"/><feFuncG type="discrete" tableValues="0 0"/><feFuncB type="discrete" tableValues="0 0"/><feFuncA type="linear" slope="0.4" intercept="0"/></feComponentTransfer><feGaussianBlur stdDeviation="2.22222 2.22222"/></filter><filter id="fx1" x="-10%" y="-10%" width="120%" height="120%" filterUnits="userSpaceOnUse" primitiveUnits="userSpaceOnUse"><feComponentTransfer color-interpolation-filters="sRGB"><feFuncR type="discrete" tableValues="0 0"/><feFuncG type="discrete" tableValues="0 0"/><feFuncB type="discrete" tableValues="0 0"/><feFuncA type="linear" slope="0.4" intercept="0"/></feComponentTransfer><feGaussianBlur stdDeviation="2.22222 2.22222"/></filter><filter id="fx2" x="-10%" y="-10%" width="120%" height="120%" filterUnits="userSpaceOnUse" primitiveUnits="userSpaceOnUse"><feComponentTransfer color-interpolation-filters="sRGB"><feFuncR type="discrete" tableValues="0 0"/><feFuncG type="discrete" tableValues="0 0"/><feFuncB type="discrete" tableValues="0 0"/><feFuncA type="linear" slope="0.4" intercept="0"/></feComponentTransfer><feGaussianBlur stdDeviation="2.22222 2.22222"/></filter><clipPath id="clip3"><rect x="168" y="20" width="945" height="346"/></clipPath><clipPath id="clip4"><rect x="-2" y="-4" width="111" height="60"/></clipPath><clipPath id="clip5"><rect x="0" y="0" width="106" height="52"/></clipPath><clipPath id="clip6"><rect x="-2" y="-4" width="111" height="60"/></clipPath><clipPath id="clip7"><rect x="0" y="0" width="106" height="52"/></clipPath><clipPath id="clip8"><rect x="-2" y="-4" width="111" height="60"/></clipPath><clipPath id="clip9"><rect x="0" y="0" width="106" height="52"/></clipPath></defs><g clip-path="url(#clip3)" transform="translate(-168 -20)"><rect x="169.5" y="222.5" width="188" height="135" stroke="#FFFFFF" stroke-width="1.33333" stroke-miterlimit="8" fill="#FFC000"/><rect x="546.5" y="222.5" width="188" height="135" stroke="#FFFFFF" stroke-width="1.33333" stroke-miterlimit="8" fill="#FFC000"/><rect x="734.5" y="222.5" width="189" height="135" stroke="#FFFFFF" stroke-width="1.33333" stroke-miterlimit="8" fill="#FFC000"/><rect x="357.5" y="222.5" width="189" height="135" stroke="#FFFFFF" stroke-width="1.33333" stroke-miterlimit="8" fill="#AE1602"/><rect x="923.5" y="222.5" width="188" height="135" stroke="#FFFFFF" stroke-width="1.33333" stroke-miterlimit="8" fill="#FFC000"/><text fill="#FFFFFF" font-family="Oswald,Oswald_MSFontService,sans-serif" font-weight="400" font-size="43" transform="translate(412.867 279)">LOSE<tspan font-size="43" x="-39.6667" y="51">YOUR</tspan><tspan font-size="43" x="59" y="51">JO</tspan><tspan font-size="43" x="94.8333" y="51">B</tspan><tspan font-size="16" x="12.0001" y="-154">AVERAGE </tspan><tspan font-size="32" x="0.0837708" y="-117">2.75%</tspan></text><path d="M0 0 0.000104987 52.7503" stroke="#FFFFFF" stroke-width="3" stroke-miterlimit="8" stroke-dasharray="12 9" fill="none" fill-rule="evenodd" transform="matrix(1 0 0 -1 452.5 222.25)"/><path d="M314 315C314 321.627 308.627 327 302 327 295.373 327 290 321.627 290 315 290 308.373 295.373 303 302 303 308.627 303 314 308.373 314 315Z" fill="#9A0000" fill-rule="evenodd"/><path d="M362 315C362 321.627 356.627 327 350 327 343.373 327 338 321.627 338 315 338 308.373 343.373 303 350 303 356.627 303 362 308.373 362 315Z" fill="#9A0000" fill-rule="evenodd"/><path d="M345 300 286 300 297.8 286 333.2 286Z" fill="#9A0000" fill-rule="evenodd"/><g clip-path="url(#clip4)" filter="url(#fx0)" transform="translate(273 275)"><g clip-path="url(#clip5)"><path d="M43.82 23.96 43.82 11.72 57.794 11.72C58.916 11.72 59.936 12.128 60.65 12.944L71.666 23.96 43.82 23.96ZM39.74 23.96 13.934 23.96 24.95 12.944C25.766 12.128 26.786 11.72 27.806 11.72L39.74 11.72 39.74 23.96ZM87.68 23.96 79.2141 23.96C78.092 23.96 77.072 23.552 76.358 22.736L63.506 9.98596C61.976 8.45601 59.936 7.64001 57.692 7.64001L27.806 7.64001C25.664 7.64001 23.522 8.45601 21.992 9.98596L9.344 22.736C8.528 23.552 8.12 24.572 8.12 25.6941L8.12 36.2C8.12 40.688 11.792 44.36 16.28 44.36L17.3 44.36C17.3 38.1381 22.298 33.14 28.52 33.14 34.7421 33.14 39.74 38.1381 39.74 44.36L66.26 44.36C66.26 38.1381 71.258 33.14 77.48 33.14 83.702 33.14 88.7 38.1381 88.7 44.36L93.8 44.36C96.044 44.36 97.88 42.524 97.88 40.28L97.88 34.16C97.88 28.5501 93.29 23.96 87.68 23.96Z" fill="#C00000" fill-rule="evenodd"/></g></g><path d="M317 299 317 287 330.7 287C331.8 287 332.8 287.4 333.5 288.2L344.3 299 317 299ZM313 299 287.7 299 298.5 288.2C299.3 287.4 300.3 287 301.3 287L313 287 313 299ZM360 299 351.7 299C350.6 299 349.6 298.6 348.9 297.8L336.3 285.3C334.8 283.8 332.8 283 330.6 283L301.3 283C299.2 283 297.1 283.8 295.6 285.3L283.2 297.8C282.4 298.6 282 299.6 282 300.7L282 311C282 315.4 285.6 319 290 319L291 319C291 312.9 295.9 308 302 308 308.1 308 313 312.9 313 319L339 319C339 312.9 343.9 308 350 308 356.1 308 361 312.9 361 319L366 319C368.2 319 370 317.2 370 315L370 309C370 303.5 365.5 299 360 299Z" fill="#C00000" fill-rule="evenodd"/><path d="M0 0 0.848189 134.4" stroke="#FFFFFF" stroke-width="3" stroke-miterlimit="8" stroke-dasharray="12 9" fill="none" fill-rule="evenodd" transform="matrix(1 0 0 -1 314.5 282.9)"/><text fill="#FFFFFF" font-family="Oswald,Oswald_MSFontService,sans-serif" font-weight="400" font-size="32" transform="translate(283.032 135)">2.2%<tspan font-size="16" x="-29.8726" y="-38">BACHELOR’S DEGREE</tspan></text><path d="M922 297C922 303.627 916.627 309 910 309 903.373 309 898 303.627 898 297 898 290.373 903.373 285 910 285 916.627 285 922 290.373 922 297Z" fill="#002060" fill-rule="evenodd"/><path d="M970 297C970 303.627 964.627 309 958 309 951.373 309 946 303.627 946 297 946 290.373 951.373 285 958 285 964.627 285 970 290.373 970 297Z" fill="#002060" fill-rule="evenodd"/><path d="M953 282 895 282 906.6 268 941.4 268Z" fill="#002060" fill-rule="evenodd"/><g clip-path="url(#clip6)" filter="url(#fx1)" transform="translate(881 257)"><g clip-path="url(#clip7)"><path d="M43.82 23.96 43.82 11.72 57.794 11.72C58.916 11.72 59.936 12.128 60.65 12.944L71.666 23.96 43.82 23.96ZM39.74 23.96 13.934 23.96 24.95 12.944C25.766 12.128 26.786 11.72 27.806 11.72L39.74 11.72 39.74 23.96ZM87.68 23.96 79.2141 23.96C78.092 23.96 77.072 23.552 76.358 22.736L63.506 9.98596C61.976 8.45601 59.936 7.64001 57.692 7.64001L27.806 7.64001C25.664 7.64001 23.522 8.45601 21.992 9.98596L9.344 22.736C8.528 23.552 8.12 24.572 8.12 25.6941L8.12 36.2C8.12 40.688 11.792 44.36 16.28 44.36L17.3 44.36C17.3 38.1381 22.298 33.14 28.52 33.14 34.7421 33.14 39.74 38.1381 39.74 44.36L66.26 44.36C66.26 38.1381 71.258 33.14 77.48 33.14 83.702 33.14 88.7 38.1381 88.7 44.36L93.8 44.36C96.044 44.36 97.88 42.524 97.88 40.28L97.88 34.16C97.88 28.5501 93.29 23.96 87.68 23.96Z" fill="#003192" fill-rule="evenodd"/></g></g><path d="M925 281 925 269 938.7 269C939.8 269 940.8 269.4 941.5 270.2L952.3 281 925 281ZM921 281 895.7 281 906.5 270.2C907.3 269.4 908.3 269 909.3 269L921 269 921 281ZM968 281 959.7 281C958.6 281 957.6 280.6 956.9 279.8L944.3 267.3C942.8 265.8 940.8 265 938.6 265L909.3 265C907.2 265 905.1 265.8 903.6 267.3L891.2 279.8C890.4 280.6 890 281.6 890 282.7L890 293C890 297.4 893.6 301 898 301L899 301C899 294.9 903.9 290 910 290 916.1 290 921 294.9 921 301L947 301C947 294.9 951.9 290 958 290 964.1 290 969 294.9 969 301L974 301C976.2 301 978 299.2 978 297L978 291C978 285.5 973.5 281 968 281Z" fill="#003192" fill-rule="evenodd"/><path d="M0 0 0.848084 119.928" stroke="#FFFFFF" stroke-width="3" stroke-miterlimit="8" stroke-dasharray="12 9" fill="none" fill-rule="evenodd" transform="matrix(1 0 0 -1 923.5 263.428)"/><text fill="#FFFFFF" font-family="Oswald,Oswald_MSFontService,sans-serif" font-weight="400" font-size="32" transform="translate(891.673 138)">5.4%<tspan font-size="16" x="-49.0554" y="-37">NO HIGH SCHOOL DIPLOMA</tspan></text><path d="M636 275C636 281.627 630.627 287 624 287 617.373 287 612 281.627 612 275 612 268.373 617.373 263 624 263 630.627 263 636 268.373 636 275Z" fill="#006000" fill-rule="evenodd"/><path d="M684 275C684 281.627 678.627 287 672 287 665.373 287 660 281.627 660 275 660 268.373 665.373 263 672 263 678.627 263 684 268.373 684 275Z" fill="#006000" fill-rule="evenodd"/><path d="M667 260 608 260 619.8 246 655.2 246Z" fill="#006000" fill-rule="evenodd"/><g clip-path="url(#clip8)" filter="url(#fx2)" transform="translate(595 235)"><g clip-path="url(#clip9)"><path d="M43.82 23.96 43.82 11.72 57.794 11.72C58.916 11.72 59.936 12.128 60.65 12.944L71.666 23.96 43.82 23.96ZM39.74 23.96 13.934 23.96 24.95 12.944C25.766 12.128 26.786 11.72 27.806 11.72L39.74 11.72 39.74 23.96ZM87.68 23.96 79.2141 23.96C78.092 23.96 77.072 23.552 76.358 22.736L63.506 9.98595C61.976 8.456 59.936 7.64 57.692 7.64L27.806 7.64C25.664 7.64 23.522 8.456 21.992 9.98595L9.344 22.736C8.528 23.552 8.12 24.572 8.12 25.6941L8.12 36.2C8.12 40.688 11.792 44.36 16.28 44.36L17.3 44.36C17.3 38.1381 22.298 33.14 28.52 33.14 34.7421 33.14 39.74 38.1381 39.74 44.36L66.26 44.36C66.26 38.1381 71.258 33.14 77.48 33.14 83.702 33.14 88.7 38.1381 88.7 44.36L93.8 44.36C96.044 44.36 97.88 42.524 97.88 40.28L97.88 34.16C97.88 28.5501 93.29 23.96 87.68 23.96Z" fill="#007E00" fill-rule="evenodd"/></g></g><path d="M639 259 639 247 652.7 247C653.8 247 654.8 247.4 655.5 248.2L666.3 259 639 259ZM635 259 609.7 259 620.5 248.2C621.3 247.4 622.3 247 623.3 247L635 247 635 259ZM682 259 673.7 259C672.6 259 671.6 258.6 670.9 257.8L658.3 245.3C656.8 243.8 654.8 243 652.6 243L623.3 243C621.2 243 619.1 243.8 617.6 245.3L605.2 257.8C604.4 258.6 604 259.6 604 260.7L604 271C604 275.4 607.6 279 612 279L613 279C613 272.9 617.9 268 624 268 630.1 268 635 272.9 635 279L661 279C661 272.9 665.9 268 672 268 678.1 268 683 272.9 683 279L688 279C690.2 279 692 277.2 692 275L692 269C692 263.5 687.5 259 682 259Z" fill="#007E00" fill-rule="evenodd"/><path d="M636.205 240.1 635.5 86.5001" stroke="#FFFFFF" stroke-width="3" stroke-miterlimit="8" stroke-dasharray="12 9" fill="none" fill-rule="evenodd"/><text fill="#FFFFFF" font-family="Oswald,Oswald_MSFontService,sans-serif" font-weight="400" font-size="32" transform="translate(606.257 79)">3.7%<tspan font-size="16" x="-40.5726" y="-38">HIGH SCHOOL DIPLOMA</tspan></text></g></svg>